<mxfile host="app.diagrams.net" agent="Mozilla/5.0 (Windows NT 10.0; Win64; x64) AppleWebKit/537.36 (KHTML, like Gecko) Chrome/135.0.0.0 Safari/537.36" version="26.2.14">
  <diagram name="第1頁" id="fqpVkU4v0Fdl_HsKLIoa">
    <mxGraphModel dx="1298" dy="531" grid="1" gridSize="10" guides="1" tooltips="1" connect="1" arrows="1" fold="1" page="1" pageScale="1" pageWidth="1169" pageHeight="827" background="none" math="0" shadow="1">
      <root>
        <mxCell id="0" />
        <mxCell id="1" parent="0" />
        <mxCell id="S_nrsH5fP5m5aPKsDpfG-5" value="&lt;font face=&quot;Helvetica&quot; style=&quot;font-size: 14px;&quot;&gt;«Component»&lt;/font&gt;&lt;div&gt;&lt;font size=&quot;3&quot; face=&quot;Helvetica&quot;&gt;DreamEcho AI 系統&amp;nbsp;&amp;nbsp;&lt;/font&gt;&lt;/div&gt;" style="html=1;dropTarget=0;whiteSpace=wrap;align=center;" vertex="1" parent="1">
          <mxGeometry x="450" y="205" width="260" height="140" as="geometry" />
        </mxCell>
        <mxCell id="S_nrsH5fP5m5aPKsDpfG-6" value="" style="shape=module;jettyWidth=8;jettyHeight=4;" vertex="1" parent="S_nrsH5fP5m5aPKsDpfG-5">
          <mxGeometry x="1" width="20" height="20" relative="1" as="geometry">
            <mxPoint x="-27" y="7" as="offset" />
          </mxGeometry>
        </mxCell>
        <mxCell id="S_nrsH5fP5m5aPKsDpfG-9" value="&lt;font style=&quot;font-size: 14px;&quot;&gt;«Component»&lt;/font&gt;&lt;div&gt;&lt;font size=&quot;3&quot;&gt;使用者&lt;/font&gt;&lt;/div&gt;" style="html=1;dropTarget=0;whiteSpace=wrap;" vertex="1" parent="1">
          <mxGeometry x="490" y="10" width="180" height="90" as="geometry" />
        </mxCell>
        <mxCell id="S_nrsH5fP5m5aPKsDpfG-10" value="" style="shape=module;jettyWidth=8;jettyHeight=4;" vertex="1" parent="S_nrsH5fP5m5aPKsDpfG-9">
          <mxGeometry x="1" width="20" height="20" relative="1" as="geometry">
            <mxPoint x="-27" y="7" as="offset" />
          </mxGeometry>
        </mxCell>
        <mxCell id="S_nrsH5fP5m5aPKsDpfG-16" value="" style="rounded=0;orthogonalLoop=1;jettySize=auto;html=1;endArrow=halfCircle;endFill=0;endSize=6;strokeWidth=1;sketch=0;exitX=0.5;exitY=1;exitDx=0;exitDy=0;" edge="1" target="S_nrsH5fP5m5aPKsDpfG-18" parent="1" source="S_nrsH5fP5m5aPKsDpfG-9">
          <mxGeometry relative="1" as="geometry">
            <mxPoint x="760" y="150" as="sourcePoint" />
          </mxGeometry>
        </mxCell>
        <mxCell id="S_nrsH5fP5m5aPKsDpfG-17" value="" style="rounded=0;orthogonalLoop=1;jettySize=auto;html=1;endArrow=oval;endFill=0;sketch=0;sourcePerimeterSpacing=0;targetPerimeterSpacing=0;endSize=10;exitX=0.5;exitY=0;exitDx=0;exitDy=0;" edge="1" target="S_nrsH5fP5m5aPKsDpfG-18" parent="1" source="S_nrsH5fP5m5aPKsDpfG-5">
          <mxGeometry relative="1" as="geometry">
            <mxPoint x="580" y="200" as="sourcePoint" />
          </mxGeometry>
        </mxCell>
        <mxCell id="S_nrsH5fP5m5aPKsDpfG-18" value="" style="ellipse;whiteSpace=wrap;html=1;align=center;aspect=fixed;fillColor=none;strokeColor=none;resizable=0;perimeter=centerPerimeter;rotatable=0;allowArrows=0;points=[];outlineConnect=1;" vertex="1" parent="1">
          <mxGeometry x="575" y="140" width="10" height="10" as="geometry" />
        </mxCell>
        <mxCell id="S_nrsH5fP5m5aPKsDpfG-19" value="&lt;font face=&quot;Helvetica&quot; style=&quot;font-size: 14px;&quot;&gt;«Component»&lt;/font&gt;&lt;div&gt;&lt;font size=&quot;3&quot; face=&quot;monospace&quot;&gt;貼文社群元件 (Post &amp;amp; Forum)&lt;/font&gt;&lt;/div&gt;" style="html=1;dropTarget=0;whiteSpace=wrap;align=center;" vertex="1" parent="1">
          <mxGeometry x="625" y="450" width="240" height="140" as="geometry" />
        </mxCell>
        <mxCell id="S_nrsH5fP5m5aPKsDpfG-20" value="" style="shape=module;jettyWidth=8;jettyHeight=4;" vertex="1" parent="S_nrsH5fP5m5aPKsDpfG-19">
          <mxGeometry x="1" width="20" height="20" relative="1" as="geometry">
            <mxPoint x="-27" y="7" as="offset" />
          </mxGeometry>
        </mxCell>
        <mxCell id="S_nrsH5fP5m5aPKsDpfG-23" value="" style="ellipse;whiteSpace=wrap;html=1;align=center;aspect=fixed;fillColor=none;strokeColor=none;resizable=0;perimeter=centerPerimeter;rotatable=0;allowArrows=0;points=[];outlineConnect=1;" vertex="1" parent="1">
          <mxGeometry x="605" y="270" width="10" height="10" as="geometry" />
        </mxCell>
        <mxCell id="S_nrsH5fP5m5aPKsDpfG-24" value="&lt;font style=&quot;font-size: 14px;&quot;&gt;«Component»&lt;/font&gt;&lt;div&gt;&lt;font size=&quot;3&quot;&gt;系統管理員&lt;/font&gt;&lt;/div&gt;" style="html=1;dropTarget=0;whiteSpace=wrap;" vertex="1" parent="1">
          <mxGeometry x="655" y="710" width="180" height="90" as="geometry" />
        </mxCell>
        <mxCell id="S_nrsH5fP5m5aPKsDpfG-25" value="" style="shape=module;jettyWidth=8;jettyHeight=4;" vertex="1" parent="S_nrsH5fP5m5aPKsDpfG-24">
          <mxGeometry x="1" width="20" height="20" relative="1" as="geometry">
            <mxPoint x="-27" y="7" as="offset" />
          </mxGeometry>
        </mxCell>
        <mxCell id="S_nrsH5fP5m5aPKsDpfG-26" value="&lt;font face=&quot;Helvetica&quot; style=&quot;font-size: 14px;&quot;&gt;«Component»&lt;/font&gt;&lt;div&gt;&lt;font size=&quot;3&quot; face=&quot;monospace&quot;&gt;&amp;nbsp;夢境分析元件 (Dream Analysis)&lt;/font&gt;&lt;/div&gt;" style="html=1;dropTarget=0;whiteSpace=wrap;align=center;" vertex="1" parent="1">
          <mxGeometry y="450" width="240" height="140" as="geometry" />
        </mxCell>
        <mxCell id="S_nrsH5fP5m5aPKsDpfG-27" value="" style="shape=module;jettyWidth=8;jettyHeight=4;" vertex="1" parent="S_nrsH5fP5m5aPKsDpfG-26">
          <mxGeometry x="1" width="20" height="20" relative="1" as="geometry">
            <mxPoint x="-27" y="7" as="offset" />
          </mxGeometry>
        </mxCell>
        <mxCell id="S_nrsH5fP5m5aPKsDpfG-28" value="&lt;font face=&quot;Helvetica&quot; style=&quot;font-size: 14px;&quot;&gt;«Component»&lt;/font&gt;&lt;div&gt;&lt;font size=&quot;3&quot; face=&quot;monospace&quot;&gt;熱門與搜尋元件 (Search &amp;amp; Hot)&lt;/font&gt;&lt;/div&gt;" style="html=1;dropTarget=0;whiteSpace=wrap;align=center;" vertex="1" parent="1">
          <mxGeometry x="920" y="450" width="240" height="140" as="geometry" />
        </mxCell>
        <mxCell id="S_nrsH5fP5m5aPKsDpfG-29" value="" style="shape=module;jettyWidth=8;jettyHeight=4;" vertex="1" parent="S_nrsH5fP5m5aPKsDpfG-28">
          <mxGeometry x="1" width="20" height="20" relative="1" as="geometry">
            <mxPoint x="-27" y="7" as="offset" />
          </mxGeometry>
        </mxCell>
        <mxCell id="S_nrsH5fP5m5aPKsDpfG-32" value="&lt;font face=&quot;Helvetica&quot; style=&quot;font-size: 14px;&quot;&gt;«Component»&lt;/font&gt;&lt;div&gt;&lt;font size=&quot;3&quot; face=&quot;monospace&quot;&gt;夢境歷史(history)&lt;/font&gt;&lt;/div&gt;" style="html=1;dropTarget=0;whiteSpace=wrap;align=center;" vertex="1" parent="1">
          <mxGeometry x="300" y="450" width="240" height="140" as="geometry" />
        </mxCell>
        <mxCell id="S_nrsH5fP5m5aPKsDpfG-33" value="" style="shape=module;jettyWidth=8;jettyHeight=4;" vertex="1" parent="S_nrsH5fP5m5aPKsDpfG-32">
          <mxGeometry x="1" width="20" height="20" relative="1" as="geometry">
            <mxPoint x="-27" y="7" as="offset" />
          </mxGeometry>
        </mxCell>
        <mxCell id="S_nrsH5fP5m5aPKsDpfG-34" value="" style="rounded=0;orthogonalLoop=1;jettySize=auto;html=1;endArrow=halfCircle;endFill=0;endSize=6;strokeWidth=1;sketch=0;exitX=0.5;exitY=0;exitDx=0;exitDy=0;" edge="1" parent="1" source="S_nrsH5fP5m5aPKsDpfG-24">
          <mxGeometry relative="1" as="geometry">
            <mxPoint x="745" y="730" as="sourcePoint" />
            <mxPoint x="745" y="640" as="targetPoint" />
          </mxGeometry>
        </mxCell>
        <mxCell id="S_nrsH5fP5m5aPKsDpfG-37" value="" style="rounded=0;orthogonalLoop=1;jettySize=auto;html=1;endArrow=oval;endFill=0;sketch=0;sourcePerimeterSpacing=0;targetPerimeterSpacing=0;endSize=10;exitX=0.5;exitY=1;exitDx=0;exitDy=0;" edge="1" parent="1" source="S_nrsH5fP5m5aPKsDpfG-19">
          <mxGeometry relative="1" as="geometry">
            <mxPoint x="744.5" y="620" as="sourcePoint" />
            <mxPoint x="745" y="640" as="targetPoint" />
          </mxGeometry>
        </mxCell>
        <mxCell id="S_nrsH5fP5m5aPKsDpfG-38" value="" style="rounded=0;orthogonalLoop=1;jettySize=auto;html=1;endArrow=halfCircle;endFill=0;endSize=6;strokeWidth=1;sketch=0;exitX=1;exitY=0.5;exitDx=0;exitDy=0;" edge="1" parent="1" target="S_nrsH5fP5m5aPKsDpfG-40" source="S_nrsH5fP5m5aPKsDpfG-5">
          <mxGeometry relative="1" as="geometry">
            <mxPoint x="1040" y="345" as="sourcePoint" />
          </mxGeometry>
        </mxCell>
        <mxCell id="S_nrsH5fP5m5aPKsDpfG-39" value="" style="rounded=0;orthogonalLoop=1;jettySize=auto;html=1;endArrow=oval;endFill=0;sketch=0;sourcePerimeterSpacing=0;targetPerimeterSpacing=0;endSize=10;exitX=0.5;exitY=0;exitDx=0;exitDy=0;" edge="1" parent="1" target="S_nrsH5fP5m5aPKsDpfG-40">
          <mxGeometry relative="1" as="geometry">
            <mxPoint x="1040" y="450" as="sourcePoint" />
          </mxGeometry>
        </mxCell>
        <mxCell id="S_nrsH5fP5m5aPKsDpfG-40" value="" style="ellipse;whiteSpace=wrap;html=1;align=center;aspect=fixed;fillColor=none;strokeColor=none;resizable=0;perimeter=centerPerimeter;rotatable=0;allowArrows=0;points=[];outlineConnect=1;" vertex="1" parent="1">
          <mxGeometry x="1035" y="270" width="10" height="10" as="geometry" />
        </mxCell>
        <mxCell id="S_nrsH5fP5m5aPKsDpfG-41" value="" style="rounded=0;orthogonalLoop=1;jettySize=auto;html=1;endArrow=halfCircle;endFill=0;endSize=6;strokeWidth=1;sketch=0;exitX=0.5;exitY=1;exitDx=0;exitDy=0;" edge="1" parent="1" target="S_nrsH5fP5m5aPKsDpfG-43">
          <mxGeometry relative="1" as="geometry">
            <mxPoint x="665" y="345" as="sourcePoint" />
          </mxGeometry>
        </mxCell>
        <mxCell id="S_nrsH5fP5m5aPKsDpfG-42" value="" style="rounded=0;orthogonalLoop=1;jettySize=auto;html=1;endArrow=oval;endFill=0;sketch=0;sourcePerimeterSpacing=0;targetPerimeterSpacing=0;endSize=10;exitX=0.5;exitY=0;exitDx=0;exitDy=0;" edge="1" parent="1" target="S_nrsH5fP5m5aPKsDpfG-43">
          <mxGeometry relative="1" as="geometry">
            <mxPoint x="665" y="450" as="sourcePoint" />
          </mxGeometry>
        </mxCell>
        <mxCell id="S_nrsH5fP5m5aPKsDpfG-43" value="" style="ellipse;whiteSpace=wrap;html=1;align=center;aspect=fixed;fillColor=none;strokeColor=none;resizable=0;perimeter=centerPerimeter;rotatable=0;allowArrows=0;points=[];outlineConnect=1;" vertex="1" parent="1">
          <mxGeometry x="660" y="385" width="10" height="10" as="geometry" />
        </mxCell>
        <mxCell id="S_nrsH5fP5m5aPKsDpfG-44" value="" style="rounded=0;orthogonalLoop=1;jettySize=auto;html=1;endArrow=halfCircle;endFill=0;endSize=6;strokeWidth=1;sketch=0;exitX=0.5;exitY=1;exitDx=0;exitDy=0;" edge="1" parent="1" target="S_nrsH5fP5m5aPKsDpfG-46">
          <mxGeometry relative="1" as="geometry">
            <mxPoint x="485" y="345" as="sourcePoint" />
          </mxGeometry>
        </mxCell>
        <mxCell id="S_nrsH5fP5m5aPKsDpfG-45" value="" style="rounded=0;orthogonalLoop=1;jettySize=auto;html=1;endArrow=oval;endFill=0;sketch=0;sourcePerimeterSpacing=0;targetPerimeterSpacing=0;endSize=10;exitX=0.5;exitY=0;exitDx=0;exitDy=0;" edge="1" parent="1" target="S_nrsH5fP5m5aPKsDpfG-46">
          <mxGeometry relative="1" as="geometry">
            <mxPoint x="485" y="450" as="sourcePoint" />
          </mxGeometry>
        </mxCell>
        <mxCell id="S_nrsH5fP5m5aPKsDpfG-46" value="" style="ellipse;whiteSpace=wrap;html=1;align=center;aspect=fixed;fillColor=none;strokeColor=none;resizable=0;perimeter=centerPerimeter;rotatable=0;allowArrows=0;points=[];outlineConnect=1;" vertex="1" parent="1">
          <mxGeometry x="480" y="385" width="10" height="10" as="geometry" />
        </mxCell>
        <mxCell id="S_nrsH5fP5m5aPKsDpfG-47" value="" style="rounded=0;orthogonalLoop=1;jettySize=auto;html=1;endArrow=halfCircle;endFill=0;endSize=6;strokeWidth=1;sketch=0;exitX=0;exitY=0.5;exitDx=0;exitDy=0;" edge="1" parent="1" target="S_nrsH5fP5m5aPKsDpfG-49" source="S_nrsH5fP5m5aPKsDpfG-5">
          <mxGeometry relative="1" as="geometry">
            <mxPoint x="115" y="345" as="sourcePoint" />
          </mxGeometry>
        </mxCell>
        <mxCell id="S_nrsH5fP5m5aPKsDpfG-48" value="" style="rounded=0;orthogonalLoop=1;jettySize=auto;html=1;endArrow=oval;endFill=0;sketch=0;sourcePerimeterSpacing=0;targetPerimeterSpacing=0;endSize=10;exitX=0.5;exitY=0;exitDx=0;exitDy=0;" edge="1" parent="1" target="S_nrsH5fP5m5aPKsDpfG-49">
          <mxGeometry relative="1" as="geometry">
            <mxPoint x="115" y="450" as="sourcePoint" />
          </mxGeometry>
        </mxCell>
        <mxCell id="S_nrsH5fP5m5aPKsDpfG-49" value="" style="ellipse;whiteSpace=wrap;html=1;align=center;aspect=fixed;fillColor=none;strokeColor=none;resizable=0;perimeter=centerPerimeter;rotatable=0;allowArrows=0;points=[];outlineConnect=1;" vertex="1" parent="1">
          <mxGeometry x="110" y="270" width="10" height="10" as="geometry" />
        </mxCell>
      </root>
    </mxGraphModel>
  </diagram>
</mxfile>
